<?xml version="1.0" encoding="utf-8"?>
<!-- Generator: Adobe Illustrator 24.0.2, SVG Export Plug-In . SVG Version: 6.00 Build 0)  -->
<svg version="1.1" id="Layer_1" xmlns="http://www.w3.org/2000/svg" xmlns:xlink="http://www.w3.org/1999/xlink" x="0px" y="0px"
	 viewBox="0 0 226 64" style="enable-background:new 0 0 226 64;" xml:space="preserve">
<style type="text/css">
	.st0{fill:#FFFFFF;}
	.st1{fill:#020202;}
	.st2{fill:none;}
	.st3{fill:#FCFAFA;}
	.st4{font-family:'Futura-Bold';}
	.st5{font-size:24px;}
</style>
<rect class="st0" width="226" height="64"/>
<rect class="st1" width="144" height="64"/>
<g id="logo_1_">
	<desc  xmlns:shape="http://adobe.com/products/shape"></desc>
	<path d="M145.45,8.97c0.63,0.55,1.18,1.21,1.62,1.94c-0.01-0.36-0.13-0.71-0.33-0.98c0.43,0.25,0.86,0.5,1.29,0.76
		c1.07-0.18,2.13-0.36,3.2-0.54c0.19-0.04,0.43-0.05,0.55,0.11c0.13,0.17-0.1,0.48-0.23,0.33c1.86,0.04,3.73-0.18,5.53-0.67
		c0.54-0.15,1.44,0.25,1.05,0.68c0.18-0.15,0.35-0.3,0.53-0.46c2.68,0.08,5.35,0.16,8.03,0.24c0.29-0.34,0.75-0.5,1.17-0.42
		c0.17,0.21,0.33,0.43,0.5,0.65c0.41-0.36,1.03-0.4,1.49-0.12c0.89-0.83,2.18-1.13,3.31-0.75c-0.62,0.13-1.24,0.27-1.86,0.4
		c0.85,0.34,1.85,0.18,2.57-0.4c-0.18,0.2-0.35,0.4-0.53,0.59c0.29,0.76-0.01,1.62-0.19,2.42c-0.36,1.64-0.17,3.36,0.03,5.04
		c0.23,1.93,0.45,3.87,0.67,5.8c-0.16,1.78-0.32,3.56-0.48,5.33c-0.17,1.93-1.56,3.66-3.31,4.15c0.02,0.28,0.04,0.55,0.07,0.83
		c-0.35-0.49-1.12-0.52-1.51-0.07c0.15,0.75-0.23,1.58-0.87,1.91c0.35-0.3,0.57-0.75,0.6-1.23c-0.96,0.73-1.85,1.58-2.64,2.52
		c-0.36,0.18-0.72,0.36-1.08,0.53c-0.04,0.43-0.08,0.85-0.12,1.27c-0.32,0.07-0.61-0.36-0.46-0.66c-0.46,0.47-0.92,0.93-1.38,1.39
		c0.09,0.99-0.28,2.01-0.96,2.68c0.58-0.67,0.8-1.69,0.54-2.57c-0.35,0.93-1.24,1.6-2.18,1.65c-0.17,0.37-0.34,0.74-0.51,1.11
		c-1.56,0.68-2.94,1.83-3.93,3.29c-0.1-0.11-0.19-0.22-0.29-0.33c-0.62,1.11-1.46,2.09-2.44,2.85c0.2-0.33,0.4-0.67,0.6-1
		c-0.53,0.56-1.22,0.94-1.95,1.09c0.3,0.08,0.6,0.15,0.9,0.22c-0.32,0.41-0.88,0.56-1.34,0.38c0.41,0.15,0.53,0.83,0.19,1.13
		c-0.04-0.43-0.57-0.71-0.91-0.47c-0.81,1.39-2.03,2.49-3.44,3.13c-0.29,0.04-0.59-0.06-0.81-0.27c0.04,0.31,0.33,0.55,0.62,0.51
		c-0.2,0.4-0.8,0.48-1.09,0.14c0.02,0.87-0.15,1.74-0.5,2.52c0.58,0.76,1.47,1.23,2.38,1.27c-0.39,0.08-0.8-0.3-0.79-0.72
		c2.49,0.28,5.03,0.14,7.49-0.4c-0.31,0.14-0.61,0.28-0.92,0.43c0.33,0.32,0.92,0.23,1.16-0.17c3.08,0.25,6.19,0.11,9.24-0.43
		c-0.15,0.2-0.3,0.39-0.44,0.59c1.4,0.01,2.8-0.07,4.2-0.23c0.46,0.03,0.93,0.05,1.39,0.08c1.96,0.12,3.91,0.24,5.87,0.36
		c0.12-0.34,0.55-0.4,0.9-0.39c1.23,0.05,2.46,0.09,3.69,0.13c0.26,0.02,0.51,0.04,0.77,0.05c0.67-0.03,1.34-0.06,2.01-0.09
		c2.69,0.01,5.38,0.02,8.07,0.02c1.71,0.01,3.43,0.01,5.14,0.02c-0.08,0.3-0.55-0.07-0.4-0.33c0.15-0.26,0.51-0.25,0.8-0.2
		c0.23,0.63,1.06,0.6,1.68,0.46c1.6-0.37,3.2-0.73,4.79-1.1c-0.31,0.16-0.62,0.33-0.93,0.49c0.28,0.05,0.56,0.09,0.85,0.14
		c0.53-0.82,0.92-1.75,1.13-2.73c-0.17,0.28-0.34,0.55-0.51,0.82c-0.09-0.37-0.18-0.74-0.27-1.11c-0.94-1.09-2.07-1.99-3.31-2.65
		c-0.02-0.44-0.04-0.89-0.07-1.34c-0.2,0.34-0.28,0.76-0.23,1.16c-0.35-0.45-0.6-0.98-0.74-1.55c0.15,0.27-0.36,0.35-0.6,0.17
		c-1.58-1.16-2.39-3.31-4.07-4.29c-1.18-0.7-2.99-1.2-2.86-2.64c-0.48-0.2-0.85-0.66-0.97-1.19c0.22,0.08,0.07,0.5-0.16,0.5
		c-0.24,0.01-0.41-0.21-0.55-0.41c-0.59-0.83-1.17-1.65-1.75-2.48c-0.3,0.05-0.59-0.14-0.83-0.32c-0.8-0.57-1.59-1.14-2.39-1.72
		c-0.33-0.23-0.66-0.75-0.34-0.99c-0.97-0.22-1.88-0.7-2.64-1.37c0.3,0.03,0.6,0.06,0.9,0.09c-0.21-0.46-0.51-0.87-0.88-1.19
		c-0.13-0.12-0.32-0.23-0.46-0.12c-0.14,0.1,0.06,0.41,0.15,0.25c-0.85-0.86-1.71-1.72-2.56-2.58c0.65-0.56,1.78-0.16,1.99,0.7
		c0.03-0.37-0.08-0.75-0.32-1.03c1.06,0.24,1.99,1.08,2.4,2.16c-0.4-0.18,0.08-0.89,0.47-0.7c0.39,0.2,0.47,0.73,0.5,1.19
		c0.01-0.3,0.01-0.59,0.02-0.88c0.94,0.45,1.89,0.91,2.83,1.36c-0.27-0.27-0.54-0.53-0.81-0.79c1.53,0.26,3.04,0.63,4.51,1.11
		c-0.27-0.27-0.53-0.54-0.79-0.81c1.23,0.34,2.55,0.3,3.75-0.14c0.97-0.35,1.84-0.94,2.71-1.52c1.72-1.16,3.45-2.32,5.17-3.48
		c-0.09-0.46,0.24-0.97,0.67-1.05c0.06-0.68,0.61-1.28,1.24-1.35c-0.34,0.1-0.45-0.48-0.35-0.84c0.28-0.92,0.81-1.75,1.53-2.34
		c0.08,0.5-0.35,1.03-0.83,1c0.27,0.2,0.7,0.12,0.89-0.17c0,13.87,0,27.73,0,41.6c-19.9,0-39.81,0-59.71,0c0-21.33,0-42.67,0-64
		c19.9,0,39.81,0,59.71,0c0,3.38,0,6.76-0.01,10.13c-0.67-1.02-1.39-2-2.15-2.95c-0.27,0.08-0.01,0.61,0.24,0.48
		c0.25-0.14,0.21-0.58-0.01-0.77c-0.23-0.19-0.53-0.2-0.82-0.2c-2.69,0.02-5.39,0.09-8.08,0.23c-1.23-0.04-2.47-0.08-3.7-0.11
		c-1.33-0.04-2.68-0.08-4,0.14c-0.38-0.5-1.21-0.47-1.55,0.05c-1.78-0.01-3.57-0.02-5.35-0.03c-0.66-0.01-1.16-0.59-1.72-0.96
		c-0.56-0.37-1.5-0.39-1.68,0.28c-0.13,0.47-0.67,0.61-1.13,0.66c-4.29,0.47-8.62,0.46-12.92-0.05c0.07,0.28,0.14,0.56,0.21,0.84
		c-2.69-1.52-6.2,0.45-8.96-0.93c0.29,0.23,0.58,0.47,0.87,0.7c-0.95-0.04-1.89-0.29-2.74-0.73c-0.79,1.74-4.11-0.24-4.82,1.53
		c0.23-0.12,0.46-0.25,0.7-0.39C146.18,8.37,145.87,8.86,145.45,8.97 M168.86,56.18c0.17,0.27,0.4,0.49,0.67,0.62
		c0.03-0.17-0.1-0.36-0.27-0.39c0.06,0.01,0.07-0.1,0.02-0.12c-0.06-0.02-0.12,0.01-0.16,0.05
		C169.13,56.21,168.96,56.11,168.86,56.18 M166.72,56.48c0.06,0.04,0.12,0.08,0.18,0.08c0.06-0.01,0.11-0.05,0.15-0.08
		c-0.17,0.02-0.29-0.17-0.41-0.3s-0.36-0.22-0.44-0.05C166.38,56.24,166.55,56.36,166.72,56.48 M170.02,56.44
		c0.14,0.12,0.28,0.24,0.42,0.36c0.11-0.1,0.04-0.31-0.08-0.4c-0.12-0.09-0.28-0.11-0.41-0.17
		C169.89,56.27,169.95,56.39,170.02,56.44 M173.07,21.28c0.11,0.05,0.24,0.03,0.33-0.06c-0.07-0.05-0.02-0.18,0.06-0.17
		c-0.01-0.17-0.06-0.34-0.15-0.47c-0.15,0.11-0.18,0.37-0.05,0.52C173.18,21.12,173.1,21.19,173.07,21.28 M173.96,6.96
		c0.08,0,0.16,0.01,0.24,0.01c0.01-0.14-0.17-0.21-0.29-0.26c-0.13-0.05-0.25-0.23-0.15-0.32c-0.1,0-0.19,0.11-0.17,0.21
		c0.01,0.1,0.12,0.18,0.21,0.15c-0.06,0.02-0.06,0.12-0.01,0.16C173.83,6.95,173.89,6.95,173.96,6.96 M173.77,26.13
		c-0.16-0.08-0.34,0.07-0.46,0.2c-0.09,0.09-0.18,0.18-0.27,0.28c0.07,0.09,0.2,0.02,0.28-0.05
		C173.47,26.41,173.62,26.28,173.77,26.13 M172.53,17.25c-0.02,0.05-0.01,0.11,0.02,0.15c0.2-0.09,0.34-0.3,0.36-0.53
		C172.73,16.87,172.56,17.05,172.53,17.25 M169.68,6.97C169.79,6.96,169.9,6.98,170,7c-0.15-0.25-0.55-0.26-0.72-0.02
		c0.13,0.05,0.27,0.04,0.38-0.03 M160.12,7.28c0.2-0.11,0.24-0.46,0.07-0.62c-0.11,0.17-0.14,0.38-0.08,0.57 M173.24,11.98
		c0.02-0.05,0.03-0.09,0.04-0.14c-0.11,0-0.22,0-0.31,0.05c-0.09,0.05-0.16,0.18-0.11,0.28c0.14-0.02,0.28-0.08,0.39-0.18
		 M170.81,32.07c-0.04,0.04-0.07,0.08-0.11,0.12c0.06,0.02,0.12,0.04,0.18,0.07c0.11-0.09,0.25-0.14,0.39-0.11
		C171.21,31.95,170.93,31.91,170.81,32.07 M191.13,42.09c0.08-0.03,0.15-0.1,0.18-0.2c-0.1-0.08-0.27-0.03-0.32,0.09
		c-0.06,0.12-0.01,0.28,0.09,0.36c0.02-0.08,0.03-0.15,0.05-0.23 M172.81,18.19c0,0,0.19,0,0.3,0c0.03-0.11,0.04-0.22,0.03-0.33
		c-0.15,0.07-0.28,0.18-0.38,0.31 M172.56,12.43c0.12,0.1,0.24,0.21,0.35,0.31c-0.04-0.1-0.09-0.2-0.13-0.3
		c-0.04-0.08-0.08-0.17-0.17-0.18s-0.14,0.14-0.06,0.16 M166.34,10.54c-0.11-0.08-0.24-0.11-0.36-0.07
		c-0.03,0.04-0.04,0.09-0.03,0.14c0.13,0.06,0.29,0.05,0.4-0.03 M170.52,32.21c0.02,0.14,0.07,0.27,0.15,0.37
		c0.05-0.15,0.04-0.32-0.04-0.45C170.6,32.05,170.45,32.15,170.52,32.21 M172.61,30.5c0.04,0.07,0.09,0.13,0.14,0.18
		c0.07-0.07,0.08-0.2,0.03-0.28c-0.06-0.08-0.18-0.11-0.26-0.05C172.52,30.4,172.56,30.47,172.61,30.5 M159.59,10.67
		c0,0,0-0.19,0-0.3c-0.09-0.02-0.18,0.07-0.18,0.16c0,0.09,0.1,0.18,0.19,0.15 M180.48,56.69c0.01-0.09-0.05-0.2-0.13-0.24
		c-0.1,0.09-0.08,0.28,0.03,0.35c0.04-0.01,0.07-0.07,0.07-0.11"/>
	<path d="M173.83,37.32c0.06-0.04,0.09,0.07,0.08,0.14c-0.11,0.09-0.3,0.02-0.34-0.12c0.09-0.01,0.17-0.02,0.26-0.03"/>
	<path d="M191.36,53.28c0.09,0.04,0.04,0.21-0.05,0.23c-0.09,0.02-0.18-0.07-0.22-0.17c0.09-0.01,0.17-0.02,0.26-0.03"/>
	<path d="M176.4,19.38c-0.02-0.14,0-0.33,0.13-0.32c0.05,0.09,0.08,0.21,0.09,0.32C176.56,19.43,176.47,19.43,176.4,19.38"/>
	<path d="M190.69,19.21c0.08,0.02,0.09,0.14,0.03,0.21c-0.05,0.06-0.13,0.08-0.21,0.09c-0.04-0.12,0.06-0.27,0.18-0.27"/>
	<path d="M173.83,27.65c-0.16,0.02-0.39-0.04-0.36-0.2c0.15-0.08,0.36,0.02,0.4,0.2"/>
	<path d="M198.84,27.27c0.13,0.12,0.17,0.34,0.08,0.5c-0.12-0.11-0.17-0.31-0.11-0.47"/>
	<path d="M153.21,10.29c-0.13-0.02-0.24-0.14-0.25-0.28c0.12-0.02,0.25,0.04,0.33,0.15C153.29,10.21,153.26,10.26,153.21,10.29"/>
	<path d="M168.01,55.63c-0.08-0.05-0.07-0.2,0.01-0.24c0.09,0.07,0.17,0.14,0.25,0.2c-0.06,0.09-0.19,0.12-0.28,0.06"/>
	<path d="M180.4,33.14c0.05-0.02,0.09,0.07,0.06,0.11c-0.03,0.04-0.1,0.04-0.14,0.02c-0.09-0.04-0.17-0.11-0.2-0.2
		c0.11-0.04,0.23,0,0.3,0.09"/>
	<path d="M196,7.16c0.07,0.03,0.13,0.07,0.19,0.09c-0.07,0.09-0.17,0.17-0.28,0.16c-0.11-0.01-0.2-0.16-0.13-0.25
		c0.07,0,0.25,0,0.25,0"/>
	<path d="M185.93,9.3c-0.09,0.02-0.18,0.03-0.27,0.04c-0.03-0.07-0.04-0.14-0.03-0.21c0.09-0.03,0.19-0.05,0.28-0.01
		c0.09,0.05,0.12,0.2,0.04,0.24"/>
	<path d="M182.92,28.46c0.14-0.08,0.33-0.06,0.45,0.05c-0.11,0.05-0.2,0.1-0.31,0.15C182.99,28.61,182.94,28.53,182.92,28.46"/>
	<path d="M198.42,9.18c-0.08-0.15-0.1-0.34-0.04-0.5c0.15,0.12,0.18,0.39,0.06,0.55"/>
	<path d="M163.5,53.39c0.02-0.09,0.11-0.15,0.19-0.13c0.08,0.02,0.14,0.11,0.13,0.2c-0.11,0.03-0.23,0.03-0.34-0.01"/>
	<path d="M181.82,24.07c0.05-0.04,0.09-0.07,0.14-0.09c0.05,0.05,0.09,0.1,0.14,0.15c-0.13,0.1-0.31,0.12-0.45,0.05
		c0.05-0.04,0.11-0.08,0.16-0.12"/>
	<path d="M193.1,14.17c-0.03,0.14-0.14,0.24-0.27,0.25c-0.01-0.17,0.13-0.32,0.29-0.31"/>
	<path d="M150.83,50.23c-0.03,0.05-0.11,0.08-0.17,0.05c-0.08-0.13-0.11-0.3-0.08-0.45c0.18-0.05,0.36,0.23,0.24,0.39"/>
	<path d="M150.47,7.05c0.09,0.02,0.17,0.14,0.14,0.24c-0.02,0.1-0.13,0.17-0.23,0.15c-0.07-0.11-0.11-0.25-0.08-0.38
		C150.35,7.02,150.42,7.02,150.47,7.05"/>
	<path d="M172.72,56.44c-0.13,0.01-0.25-0.08-0.3-0.2c0.13-0.17,0.46-0.04,0.45,0.18c-0.04,0.01-0.09,0.02-0.14,0.03"/>
	<path d="M182.15,23.18c0.03-0.09,0.06-0.18,0.08-0.27c0.2,0.04,0.24,0.39,0.06,0.47C182.22,23.33,182.17,23.26,182.15,23.18"/>
	<path d="M194.68,45.82c-0.04-0.09-0.01-0.23,0.07-0.29c0.09,0.1,0.18,0.2,0.28,0.29c-0.08,0.11-0.25,0.11-0.33-0.01"/>
	<path d="M192.56,28.6c0.08,0.05,0.17,0.12,0.19,0.23c0.02,0.11-0.09,0.23-0.17,0.17c-0.11-0.07,0.02-0.27-0.04-0.39"/>
	<path d="M153.68,10.23c-0.01,0.06,0.01,0.12,0.06,0.15c-0.14,0.04-0.3,0.04-0.44-0.01C153.38,10.26,153.53,10.21,153.68,10.23"/>
	<path d="M203.65,10.67c-0.07,0.14-0.32,0.04-0.3-0.12c0.02-0.16,0.24-0.23,0.35-0.12c0.01,0.09,0.01,0.18,0.01,0.28"/>
	<path d="M202,15.47c-0.04,0.09-0.09,0.18-0.14,0.27c-0.12-0.05-0.19-0.2-0.16-0.33s0.15-0.23,0.28-0.23
		C201.99,15.28,202,15.38,202,15.47"/>
	<path d="M175.61,6.41c-0.04-0.11-0.06-0.24-0.04-0.36c0.06-0.04,0.13-0.04,0.18-0.02c0.14,0.14,0.13,0.42-0.03,0.54
		c-0.03-0.06-0.06-0.11-0.09-0.17"/>
	<path d="M162.68,7.27c0.08,0.14-0.06,0.35-0.2,0.31c-0.15-0.04-0.16-0.31-0.02-0.36c0.08-0.02,0.16,0.02,0.24,0.05"/>
	<path d="M189.55,45.07c0.07-0.07,0.14-0.14,0.23-0.16c0.08-0.02,0.19,0.02,0.22,0.11c0.02,0.1-0.07,0.2-0.17,0.2
		c-0.09,0.01-0.18-0.07-0.23-0.15"/>
	<path d="M145.83,54.28c-0.02-0.04-0.04-0.07-0.07-0.11c0.08-0.15,0.17-0.3,0.25-0.46c0.08,0.19,0,0.43-0.17,0.53"/>
	<path d="M160.38,41.97c0.01-0.04,0.08-0.02,0.08,0.02c0.01,0.05-0.03,0.08-0.07,0.11c-0.11,0.09-0.25,0.17-0.37,0.1
		c0.08-0.12,0.2-0.22,0.33-0.27"/>
	<path d="M200.15,22.06c-0.12,0-0.18-0.18-0.12-0.3c0.06-0.11,0.17-0.17,0.28-0.22c0.04,0.17,0.02,0.35-0.04,0.5
		c-0.04,0.01-0.08,0.03-0.12,0.04"/>
	<path d="M189.97,29.14c0.13,0.06,0.25,0.15,0.35,0.25c-0.07,0.1-0.22,0.14-0.32,0.08c-0.11-0.05-0.18-0.18-0.15-0.31
		c0.04-0.01,0.08-0.02,0.12-0.04"/>
	<path d="M201.22,17.87c0.11,0.03,0.22,0.01,0.31-0.05c0.07,0.06,0.1,0.17,0.07,0.25c-0.1,0.11-0.28,0.11-0.38,0.01
		c0-0.07,0-0.18,0-0.18"/>
	<path d="M154.43,9.89c0.12-0.11,0.28-0.17,0.43-0.16c0.07,0.04,0.13,0.09,0.19,0.13C154.86,9.96,154.63,9.97,154.43,9.89"/>
	<path d="M146.28,9.03c0.17-0.11,0.36-0.15,0.55-0.12c-0.11,0.11-0.24,0.2-0.38,0.25c-0.04-0.03-0.09-0.06-0.14-0.08"/>
	<path d="M186.95,38.41c0.03-0.07,0.06-0.14,0.09-0.21c0.13,0.14,0.24,0.31,0.31,0.5C187.17,38.8,186.93,38.61,186.95,38.41"/>
	<path d="M153.69,10.23c0.01-0.14,0.14-0.26,0.27-0.25c0.13,0.02,0.24,0.15,0.23,0.3c-0.17,0.01-0.34-0.01-0.5-0.07"/>
	<path d="M195.57,50.51c-0.09-0.08-0.18-0.16-0.27-0.24c0.03-0.05,0.06-0.09,0.08-0.15c0.16,0.07,0.32,0.17,0.44,0.31
		c-0.08,0.02-0.16,0.05-0.24,0.08"/>
	<path d="M191.07,16.04c0.06-0.05,0.15-0.04,0.2,0.02c-0.15,0.18-0.45,0.19-0.61,0.01c0.11-0.1,0.27-0.12,0.4-0.05"/>
	<path d="M156.37,45.15c-0.12,0.11-0.23,0.23-0.35,0.34c-0.02-0.23,0.12-0.47,0.33-0.55C156.39,45.01,156.4,45.09,156.37,45.15"/>
	<path d="M168.87,9.16c-0.02-0.02,0.03-0.04,0.04-0.01c0.01,0.03-0.02,0.05-0.04,0.07c-0.16,0.08-0.34,0.13-0.51,0.13
		c-0.04-0.05-0.04-0.13,0-0.18c0.17-0.02,0.33-0.02,0.5,0"/>
	<path d="M166.56,36.64c0.08-0.13,0.19-0.24,0.31-0.33c-0.02,0.23-0.2,0.42-0.4,0.46c0.02-0.05,0.05-0.1,0.08-0.15"/>
	<path d="M194.89,28.3c-0.05,0.01-0.1,0.02-0.15,0.04c0.13-0.2,0.3-0.35,0.5-0.44C195.17,28.07,195.05,28.21,194.89,28.3"/>
	<path d="M199.69,9.99c-0.05,0.11-0.09,0.21-0.14,0.31c-0.11-0.11-0.14-0.28-0.08-0.43c0.06-0.14,0.2-0.24,0.35-0.22
		C199.85,9.78,199.8,9.92,199.69,9.99"/>
	<path d="M185.83,37.67c0.04,0.05,0.09,0.1,0.14,0.15c-0.22,0.07-0.46,0.05-0.67-0.05C185.38,37.57,185.67,37.51,185.83,37.67"/>
	<path d="M178.64,24.51c0.05,0.05,0.1,0.11,0.15,0.16c-0.21,0.18-0.57,0.02-0.6-0.27c0.15-0.01,0.31,0.04,0.44,0.13"/>
	<path d="M191.6,32c-0.18,0.18-0.44,0.28-0.69,0.27C191.02,32,191.35,31.87,191.6,32"/>
	<path d="M196.83,26.58c0.09-0.13,0.21-0.24,0.34-0.31c0.02,0.27-0.2,0.54-0.46,0.55C196.76,26.74,196.79,26.66,196.83,26.58"/>
	<path d="M168.75,55.48c-0.07,0-0.07-0.13-0.01-0.17c0.06-0.04,0.13-0.02,0.2-0.02s0.15-0.02,0.18-0.09
		c0.06,0.04,0.11,0.08,0.16,0.11c-0.15,0.11-0.35,0.15-0.54,0.11"/>
	<path d="M196.88,6.94c-0.21,0.07-0.43,0.12-0.64,0.19c0.12-0.28,0.45-0.43,0.71-0.3C196.93,6.86,196.91,6.9,196.88,6.94"/>
	<path d="M187.88,55.76c0.12-0.07,0.25-0.09,0.38-0.08c0.03,0.04,0.04,0.09,0.03,0.15c-0.22,0.17-0.51,0.22-0.77,0.12
		c0.05-0.15,0.22-0.24,0.36-0.21"/>
	<path d="M190.32,45.48c-0.08-0.19-0.09-0.41-0.03-0.61c-0.06-0.02-0.12-0.05-0.18-0.07c0.06-0.11,0.2-0.14,0.29-0.08
		C190.5,44.97,190.47,45.27,190.32,45.48"/>
	<path d="M189.03,18.53c-0.06,0.06-0.12,0.12-0.18,0.18c-0.05-0.24,0.01-0.51,0.14-0.71c0.06-0.04,0.14,0.01,0.17,0.07
		C189.1,18.22,189.06,18.37,189.03,18.53"/>
	<path d="M187.77,53.68c-0.18,0.17-0.43,0.34-0.64,0.21c0.2-0.15,0.4-0.3,0.61-0.44C187.79,53.51,187.8,53.61,187.77,53.68"/>
	<path d="M173.84,29.2c0.04,0.34,0.03,0.68-0.02,1.02C173.64,29.91,173.65,29.49,173.84,29.2"/>
	<path d="M159.26,53.35c-0.25,0.12-0.55,0.16-0.82,0.12C158.67,53.27,159,53.22,159.26,53.35"/>
	<path d="M191.51,45.38c-0.07-0.04-0.13-0.07-0.19-0.11c0.24-0.1,0.53-0.04,0.71,0.17c-0.17-0.04-0.34-0.07-0.51-0.1"/>
	<path d="M194.68,7.59c0.24-0.1,0.49-0.17,0.74-0.19c0.07-0.01,0.15,0.08,0.09,0.1C195.28,7.68,194.95,7.72,194.68,7.59"/>
	<path d="M191.25,15.6c-0.05,0.01-0.11-0.01-0.15-0.04c-0.03-0.02-0.06-0.07-0.08-0.1c-0.06-0.09-0.11-0.18-0.16-0.26
		c0.12-0.17,0.37-0.23,0.51-0.08C191.51,15.25,191.45,15.57,191.25,15.6"/>
	<path d="M169.47,33.83c-0.01,0.18-0.13,0.34-0.29,0.4c-0.16,0.05-0.35-0.02-0.45-0.16c0.04-0.04,0.06-0.11,0.04-0.17
		C168.99,33.81,169.23,33.79,169.47,33.83"/>
	<path d="M161.29,10c0.15-0.01,0.3-0.02,0.46-0.02c0.1-0.01,0.2-0.01,0.31-0.02c0.03,0.02,0.03,0.08,0.01,0.11
		C161.89,10.35,161.42,10.31,161.29,10"/>
	<path d="M165.09,38.13c-0.13-0.14-0.02-0.4,0.14-0.51c0.14-0.09,0.3-0.14,0.47-0.12C165.55,37.77,165.34,37.99,165.09,38.13"/>
	<path d="M152.1,9.57c0.14,0.1,0.29,0.2,0.44,0.29c-0.29-0.04-0.59-0.08-0.88-0.12c-0.08-0.09,0.01-0.25,0.12-0.27
		C151.89,9.45,152,9.51,152.1,9.57"/>
	<path d="M156.19,53.01c0.03,0.06,0.06,0.11,0.09,0.17c-0.19,0.09-0.18,0.45,0.02,0.52c0.04,0.07-0.05,0.16-0.12,0.14
		c-0.08-0.02-0.12-0.1-0.16-0.18c-0.06-0.12-0.11-0.26-0.08-0.4C155.95,53.13,156.06,53,156.19,53.01"/>
	<path d="M189.34,30.88c0.2-0.14,0.41-0.29,0.62-0.44c0.08-0.06,0.2-0.11,0.26-0.03C189.99,30.67,189.67,30.85,189.34,30.88"/>
	<path d="M161.22,7.94c0.25-0.23,0.56-0.37,0.88-0.41c0.08-0.01,0.12,0.14,0.06,0.2C162.1,7.8,162,7.8,161.91,7.79
		c-0.08-0.02-0.18-0.04-0.25-0.01c-0.09,0.04-0.13,0.14-0.21,0.2C161.38,8.04,161.24,8.04,161.22,7.94"/>
	<path d="M157.24,53.51c-0.1,0.01-0.21,0-0.27-0.08c0.39-0.11,0.8-0.14,1.19-0.07C157.86,53.44,157.55,53.49,157.24,53.51"/>
	<path d="M202.87,20.77c0.04,0.37,0.02,0.74-0.05,1.1c-0.02,0.07-0.03,0.13-0.06,0.2c-0.07-0.22-0.15-0.44-0.15-0.68
		C202.61,21.15,202.69,20.9,202.87,20.77"/>
	<path d="M160.34,8.04c-0.17,0.2-0.41,0.34-0.67,0.37c-0.09-0.12,0.08-0.27,0.23-0.31c0.18-0.05,0.36-0.11,0.55-0.17
		c0.1,0.08,0.1,0.27,0.01,0.35C160.44,8.19,160.4,8.1,160.34,8.04"/>
	<path d="M153.43,53.92c0.27-0.18,0.53-0.37,0.79-0.56c0.04-0.03,0.09-0.07,0.14-0.09c0.03-0.02,0.09-0.01,0.07,0.02
		c0.01,0.15-0.07,0.31-0.19,0.39c-0.09,0.07-0.19,0.09-0.29,0.12C153.77,53.84,153.6,53.88,153.43,53.92"/>
	<path d="M145.52,55.25c0.17,0.05,0.35,0.11,0.49,0.23c0.13,0.12,0.22,0.33,0.14,0.51c-0.05,0.11-0.15,0.19-0.27,0.21
		c-0.07-0.15-0.04-0.34,0.06-0.46c-0.13-0.02-0.26-0.04-0.36-0.13C145.48,55.53,145.44,55.36,145.52,55.25"/>
	<path d="M177.45,8.77c0.25-0.09,0.51-0.18,0.76-0.27c0.04,0.01,0.08,0.07,0.06,0.12c-0.38,0.17-0.75,0.37-1.09,0.6
		c-0.07-0.08-0.06-0.21,0.01-0.29C177.26,8.84,177.36,8.8,177.45,8.77"/>
	<path d="M203.39,21.37c-0.02-0.52,0.08-1.04,0.27-1.52c0.06,0.52,0.08,1.05,0.04,1.58C203.61,21.39,203.5,21.36,203.39,21.37"/>
	<path d="M190.26,9.76c0.17-0.08,0.29-0.24,0.33-0.43c0.22,0.04,0.43,0.08,0.65,0.11c0.13,0.02,0.3,0.09,0.29,0.24
		c-0.06,0.07-0.15,0.1-0.24,0.07c-0.01,0.12-0.13,0.21-0.24,0.18c0.06-0.18-0.13-0.4-0.3-0.35C190.71,9.79,190.43,9.9,190.26,9.76"
		/>
	<path d="M172.39,53.09c0.18-0.03,0.32-0.21,0.33-0.4c0.01-0.15-0.03-0.36,0.1-0.43c0.27,0.21,0.35,0.66,0.16,0.95
		c-0.19,0.29-0.62,0.37-0.89,0.17C172.24,53.41,172.4,53.26,172.39,53.09"/>
	<path d="M193.16,28.77c0.15,0.08,0.35,0.17,0.5,0.07c0.09-0.05,0.14-0.15,0.21-0.23c0.17-0.21,0.46-0.3,0.71-0.21
		c-0.22,0.15-0.44,0.31-0.65,0.47c-0.13,0.09-0.28,0.2-0.44,0.18C193.34,29.04,193.21,28.92,193.16,28.77"/>
	<path d="M168.34,10.27c0.03-0.15,0.07-0.31,0.11-0.46c0.46-0.05,0.93-0.09,1.4-0.13c0.15-0.01,0.33-0.01,0.41,0.12
		c-0.2-0.18-0.48,0.18-0.75,0.15C169.11,9.91,168.68,10.02,168.34,10.27"/>
	<path d="M196.87,52.26c0.26-0.05,0.53-0.02,0.77,0.07c0.11,0.05,0.16,0.19,0.14,0.31c-0.02,0.12-0.09,0.23-0.16,0.33
		c0.11,0.11,0.28-0.03,0.36-0.17c0.08-0.14,0.24-0.29,0.36-0.2c-0.01,0.28-0.22,0.54-0.48,0.6c-0.25,0.06-0.54-0.08-0.66-0.33
		c-0.08-0.15-0.25-0.24-0.41-0.2C196.9,52.59,196.93,52.4,196.87,52.26"/>
	<path d="M176.92,27.95c-0.01-0.14,0.11-0.24,0.17-0.36c0.06-0.12-0.02-0.33-0.14-0.27c-0.19,0.1-0.48-0.04-0.6,0.15
		c-0.04,0.07-0.04,0.15-0.03,0.23c0.01,0.29,0.03,0.58,0.04,0.87c-0.3-0.11-0.34-0.55-0.33-0.89c0.01-0.17,0.02-0.34,0.09-0.5
		c0.07-0.15,0.23-0.28,0.38-0.25c-0.13-0.09-0.19-0.28-0.14-0.44c0.24-0.13,0.36,0.53,0.62,0.43c0.25-0.09,0.53,0.21,0.49,0.5
		C177.44,27.7,177.19,27.91,176.92,27.95"/>
	<path d="M198.87,12.61c0.04-0.2,0.25-0.3,0.43-0.39c0.64-0.34,1.1-1.05,1.17-1.82c0.08,0.05,0.15,0.1,0.22,0.15
		c0.2,0.6,0.4,1.21,0.61,1.81c-0.31,0.12-0.35,0.61-0.18,0.91c0.17,0.31,0.46,0.5,0.69,0.75c-0.15,0.04-0.31,0.07-0.46,0.09
		c-0.11,0.79,0.01,1.62,0.34,2.33c0.17,0.37,0.36,0.92,0.03,1.14c0.09-0.34-0.02-0.73-0.27-0.96c-0.18,0.02-0.22,0.3-0.17,0.49
		c0.06,0.19,0.17,0.39,0.09,0.57c-0.08,0.18-0.43,0.1-0.34-0.07c-0.34,0.33,0.26,0.88,0.19,1.37c-0.07,0.47-0.77,0.76-0.6,1.21
		c0.22,0.57-0.34,1.13-0.83,1.47c0.11,0.19,0.09,0.44-0.02,0.62c-0.24,0.36-0.28,0.85-0.11,1.24c-0.15-0.09-0.29-0.18-0.44-0.27
		c-0.19,0.55-0.58,1.01-1.07,1.27c-0.18,0.09-0.09,0.39-0.01,0.59c0.07,0.21-0.05,0.55-0.22,0.44c-0.12-0.13-0.23-0.27-0.35-0.4
		c-0.09,0.2-0.01,0.48,0.17,0.58c0.01,0.19-0.27,0.07-0.44,0.02c-0.23-0.05-0.41,0.2-0.55,0.4c-0.13,0.21-0.38,0.43-0.57,0.3
		c0.11,0.34-0.31,0.59-0.64,0.65c-0.33,0.06-0.76,0.18-0.77,0.55c-0.01,0.15-0.19,0.21-0.34,0.19c-0.14-0.02-0.29-0.09-0.43-0.05
		c-0.23,0.08-0.3,0.46-0.54,0.49c-0.71,0.08-1.39,0.41-1.92,0.92c-0.5,0.49-1.29-0.46-1.94-0.23c0.09,0.24-0.19,0.46-0.43,0.52
		c-0.24,0.05-0.53,0.08-0.64,0.32c0.09-0.24-0.09-0.53-0.33-0.62c-0.23-0.09-0.49-0.05-0.74-0.04c-1.08,0.09-2.17-0.18-3.11-0.75
		c-0.23-0.14-0.52-0.09-0.79-0.12c-0.27-0.03-0.57-0.24-0.53-0.52c0.03-0.17-0.21-0.2-0.37-0.24c-0.35-0.09-0.48-0.63-0.28-0.97
		c0.19-0.33,0.57-0.48,0.95-0.52c-0.11-0.12-0.21-0.24-0.32-0.36c0.56-0.01,1.13-0.01,1.7-0.01c-0.27-0.25-0.67-0.33-1-0.18
		c0.13-0.66,1.14-0.44,1.58-0.94c0.2-0.23,0.23-0.62,0.06-0.88c0.28,0.08,0.56,0.16,0.85,0.09c0.28-0.07,0.54-0.32,0.54-0.62
		c-0.01-0.5,0.53-0.77,0.97-0.92c0.22-0.08,0.44-0.15,0.66-0.22c-0.04-0.24-0.08-0.48-0.13-0.72c0.25-0.15,0.57-0.16,0.83-0.02
		c-0.02-0.26,0.26-0.49,0.49-0.4c0.25,0.09,0.46-0.21,0.54-0.48c0.08-0.27,0.14-0.6,0.39-0.7c0.25-0.08,0.5-0.15,0.75-0.24
		c0.14-0.04,0.28-0.09,0.38-0.2c0.12-0.13,0.15-0.33,0.24-0.49c0.09-0.15,0.32-0.26,0.43-0.12c-0.01-0.12-0.02-0.25-0.03-0.37
		c0.23-0.65,1.08-0.95,1.63-0.57c-0.02-0.23-0.18-0.44-0.39-0.51c-0.02,0.18-0.25,0.29-0.39,0.17c0.18-0.43,0.75-0.62,1.12-0.37
		c-0.08-0.17-0.15-0.34-0.23-0.51c0.46-0.73,1.18-1.27,1.98-1.5c0.29-0.08,0.5-0.4,0.48-0.72c0.16,0.1,0.32,0.2,0.49,0.3
		c-0.03-0.19-0.06-0.37-0.09-0.56c0.19,0.15,0.46-0.02,0.59-0.24c0.12-0.22,0.16-0.49,0.29-0.69c0.13-0.21,0.44-0.33,0.6-0.15
		c-0.11,0.08-0.2,0.17-0.3,0.24c0.32,0.06,0.76,0.04,0.82-0.3C198.87,12.78,198.85,12.69,198.87,12.61 M182.84,26.76
		c-0.14,0.03-0.28,0.06-0.41,0.09c-0.03,0.11,0.14,0.15,0.25,0.12c0.19-0.05,0.38-0.1,0.57-0.15c-0.09-0.12-0.22-0.21-0.36-0.25
		C182.88,26.63,182.86,26.7,182.84,26.76"/>
	<path d="M198.04,9.39c0.14,0.16,0.18,0.43,0.08,0.63c-0.28-0.25-0.7-0.3-1.02-0.12c0.03,0.28-0.03,0.7-0.3,0.69
		c-0.6-0.01-0.93,0.71-1.12,1.32c-0.12-0.07-0.23-0.13-0.34-0.2c-0.09,0.36-0.29,0.68-0.56,0.91c-0.53-0.24-1.18,0.37-1.05,0.95
		c-0.42-0.17-0.95,0.07-1.13,0.51c-0.08,0.19-0.07,0.48,0.12,0.55c-0.38,0.32-0.77,0.64-1.16,0.96c0.26-0.4,0.52-0.79,0.78-1.19
		c-0.46,0.2-0.91,0.39-1.37,0.59c-0.06,0.02-0.12,0.05-0.16,0.11c-0.04,0.05-0.06,0.14-0.07,0.21c-0.12,0.73-0.52,1.4-1.08,1.82
		c-0.2,0.15-0.45,0.27-0.69,0.2c-0.54-0.17-1.07,0.3-1.43,0.77c-0.35,0.47-0.72,1.03-1.28,1.12c-0.21,0.03-0.53,0.18-0.39,0.36
		c0.08-0.18,0.35-0.18,0.44-0.01c-0.17-0.01-0.34,0.12-0.38,0.31c-0.06,0.23-0.3,0.34-0.51,0.36c-0.22,0.03-0.45,0.01-0.64,0.12
		c-0.19,0.11-0.3,0.43-0.12,0.58c0.12,0.1,0.01,0.33-0.14,0.36c-0.15,0.04-0.3-0.04-0.45-0.08c-0.14-0.04-0.33-0.04-0.41,0.11
		c-0.21,0.36-0.43,0.73-0.64,1.1c-0.1,0.17-0.22,0.36-0.41,0.38c-0.17,0.01-0.33-0.12-0.5-0.09c-0.12,0.02-0.22,0.12-0.3,0.23
		c-0.35,0.43-0.67,0.88-0.96,1.36c-0.26,0.44-0.81,0.65-1.28,0.5c0.15,0.2,0.45,0.26,0.66,0.12c0.06,0.23-0.28,0.34-0.49,0.25
		c-0.2-0.09-0.42-0.25-0.62-0.17c-0.04-0.44-0.37-0.85-0.78-0.95c-0.08-0.02-0.16-0.03-0.23-0.08c-0.12-0.08-0.17-0.23-0.21-0.38
		c-0.19-0.68-0.38-1.36-0.57-2.04c-0.02-0.08-0.04-0.15-0.11-0.2c-0.15-0.11-0.49,0-0.45-0.19c0.14-0.77,0.16-1.56,0.18-2.35
		c0.01-0.51,0.03-1.02,0.04-1.53c0.01-0.15-0.04-0.35-0.18-0.35c-0.31,0-0.33-0.49-0.24-0.81c0.23-0.84,0.45-1.67,0.68-2.5
		c-0.09-0.13-0.3,0-0.33,0.16c-0.04,0.15,0.02,0.32-0.01,0.48c-0.02,0.17-0.19,0.33-0.32,0.24c0.01-1.43,0.31-2.87,0.87-4.17
		c-0.21,0.02-0.4,0.14-0.53,0.32c-0.12-0.17-0.12-0.43,0-0.6c0.29-0.01,0.57-0.01,0.87-0.01c0.23-0.39,0.82-0.43,1.1-0.09
		c0.06,0.06,0.11,0.12,0.17,0.17c0.31,0.14,0.72,0.25,0.93-0.03c0.13-0.16,0.23-0.46,0.41-0.37c0.2,0.3,0.46,0.55,0.77,0.72
		c-0.21-0.13,0.08-0.48,0.32-0.43c0.24,0.04,0.47,0.23,0.7,0.16c0.01-0.09,0.02-0.17,0.03-0.26c0.62,0.33,1.35,0.26,2.04,0.19
		c0.19-0.02,0.37-0.04,0.56-0.06c0.43-0.04,0.86-0.09,1.29-0.14c0.78-0.09,1.55-0.21,2.33-0.35c-0.15,0.25-0.43,0.41-0.7,0.4
		c-0.04,0.2,0.25,0.28,0.42,0.19c0.18-0.08,0.36-0.24,0.54-0.14c0.54,0.31,1.03-0.73,1.65-0.66c-0.25,0.1-0.36,0.47-0.2,0.71
		c0.4,0.06,0.81,0.12,1.22,0.18c0.04-0.15,0.09-0.31,0.14-0.46c0.43,0.01,0.86,0.02,1.29,0.04c-0.11,0.12-0.23,0.24-0.34,0.35
		c0.09,0.15,0.3,0.13,0.44,0.04c0.14-0.09,0.25-0.23,0.4-0.3c0.32-0.16,0.68,0.04,1.01,0.17c0.33,0.12,0.8,0.1,0.91-0.25
		c0.08-0.29,0.42-0.38,0.7-0.36c0.28,0.02,0.57,0.11,0.83,0c-0.14,0.02-0.13,0.27-0.01,0.34c0.12,0.07,0.28,0.02,0.4-0.04
		C197.43,9.64,197.73,9.51,198.04,9.39 M181.39,10.38c-0.09,0.12-0.02,0.34,0.12,0.38c0.03-0.09,0.06-0.18,0.04-0.27
		c-0.02-0.08-0.1-0.17-0.18-0.14 M184.03,20.69c0.03,0.11,0.05,0.22,0.08,0.33c0.04-0.08,0.09-0.17,0.09-0.27
		c0-0.09-0.07-0.2-0.15-0.2c-0.01,0.05-0.02,0.09-0.03,0.15 M185.6,10.06c-0.01-0.05-0.06,0.04-0.03,0.07
		c0.11,0.15,0.28,0.23,0.45,0.21C185.88,10.24,185.74,10.15,185.6,10.06"/>
	<path d="M166.56,40.29c0.38-0.44,0.75-0.88,1.12-1.33c0.1-0.12,0.22-0.25,0.37-0.28c0.15-0.03,0.33,0.12,0.28,0.28
		c0.04-0.19,0.08-0.38,0.13-0.57c0.13,0.15,0.38,0.01,0.45-0.18c0.08-0.19,0.07-0.42,0.17-0.6c0.24-0.45,0.92-0.34,1.24-0.72
		c0.14-0.17,0.18-0.4,0.28-0.6s0.34-0.36,0.52-0.24c0.38,0.25,0.77-0.72,1.14-0.46c-0.04-0.38,0.14-0.78,0.45-0.98
		c0.3-0.21,0.71-0.2,1.02,0c0.07,0.05,0.13,0.11,0.15,0.18c0.02,0.07-0.01,0.14-0.02,0.2c-0.15,0.52-0.29,1.03-0.44,1.54
		c-0.03,0.1-0.06,0.2-0.08,0.3c-0.29,0.35-0.46,0.82-0.46,1.29c0.17-0.1,0.32-0.25,0.41-0.44c-0.09,0.02-0.18-0.09-0.15-0.19
		c0.03-0.09,0.15-0.13,0.23-0.07c0.21,0.04,0.19,0.37,0.09,0.56c-0.11,0.2-0.24,0.44-0.12,0.62c0.2,0.3-0.01,0.7-0.18,1.01
		c-0.18,0.31-0.25,0.82,0.07,0.96c0.38,0.16,0.32,0.89-0.08,0.97c-0.09,0.02-0.2,0.01-0.29,0.06c-0.08,0.05-0.12,0.2-0.04,0.25
		c0.05-0.18,0.33,0.02,0.28,0.21c-0.05,0.18-0.23,0.31-0.27,0.49c-0.03,0.12,0.01,0.26,0.04,0.39c0.14,0.59,0.05,1.24-0.24,1.77
		c0.22,0.04,0.41-0.27,0.3-0.47c0.3,0.04,0.5,0.43,0.38,0.72c-0.08,0.04-0.18,0.04-0.25-0.01c-0.13,0.24-0.27,0.49-0.3,0.76
		c-0.04,0.28,0.05,0.59,0.28,0.73c-0.34,0.32-0.46,0.87-0.29,1.32c0.08-0.27,0.15-0.53,0.23-0.8c0.19,0.29,0.24,0.68,0.13,1.01
		c-0.01-0.17-0.24-0.27-0.35-0.14c0.15,0.27,0.25,0.58,0.28,0.89c-0.06-0.12-0.12-0.24-0.18-0.35c-0.16,0.24-0.23,0.55-0.19,0.84
		c0.13-0.11,0.33-0.1,0.45,0.01c-0.09,0.15-0.18,0.31-0.27,0.46c0.13,0.61,0.22,1.23,0.27,1.85c-0.05-0.2-0.18-0.37-0.35-0.45
		c-0.02,0.65-0.18,1.29-0.45,1.87c-0.89,0.39-1.88,0.36-2.83,0.32c-0.25-0.01-0.55-0.06-0.64-0.31c-0.06-0.18-0.12-0.49-0.27-0.38
		c0.1,0.15-0.02,0.37-0.18,0.44c-0.16,0.07-0.34,0.03-0.51,0.01c-0.55-0.06-1.13,0.08-1.61,0.39c0.12-0.12,0.23-0.23,0.34-0.35
		c-0.25-0.24-0.6-0.5-0.9-0.33c-0.77,0.46-1.77,0.43-2.53-0.06c-0.3-0.2-0.67-0.01-1,0.12c-0.33,0.13-0.79,0.15-0.93-0.2
		c0.14,0.23,0.26,0.48,0.35,0.74c-0.27-0.02-0.51-0.27-0.56-0.56c-0.25,0.17-0.57,0.13-0.86,0.1c-1.03-0.12-2.08-0.08-3.1,0.11
		c-0.27,0.05-0.51-0.21-0.79-0.25c-0.19-0.04-0.38,0.04-0.57,0.09c-0.68,0.19-1.43,0.11-2.06-0.23c0.03,0.16,0.18,0.29,0.33,0.28
		c-0.66,0.28-1.55,0.49-1.96-0.12c0,0.16,0,0.33-0.01,0.49c-0.25-0.18-0.5-0.37-0.76-0.56c0.33,0.12,0.69-0.1,0.93-0.37
		c0.25-0.26,0.47-0.59,0.8-0.72c0.44-0.18,1.07-0.02,1.3-0.46c-0.29,0.04-0.59,0.08-0.88,0.11c0.56-0.5,1.21-0.89,1.9-1.16
		c0.25-0.09,0.54-0.17,0.79-0.07c-0.17-0.21-0.35-0.39-0.56-0.55c-0.03,0.22-0.26,0.38-0.46,0.31c0.18-0.5,0.83-0.72,1.25-0.43
		c-0.04-0.22-0.13-0.43-0.26-0.59c0.22-0.04,0.4-0.21,0.48-0.43c0.12,0.02,0.23,0.04,0.34,0.05c0-0.53,0.56-0.96,1.03-0.79
		c0.44,0.09,0.87-0.46,0.72-0.91c0.53,0.07,1.07-0.05,1.51-0.35c-0.07-0.11-0.21-0.16-0.33-0.12c-0.15,0.18-0.38,0.28-0.61,0.27
		c0.17-0.72,0.96-0.99,1.56-1.34c0.48-0.28,0.9-0.67,1.22-1.14c0.66-0.05,1.28-0.56,1.49-1.24c0.05-0.17,0.08-0.35,0.19-0.49
		c0.11-0.14,0.31-0.2,0.43-0.08c0.24,0.23,0.69-0.14,0.55-0.44c0.27-0.12,0.54-0.24,0.79-0.41
		C165.87,41.12,166.21,40.7,166.56,40.29 M173.7,35.02c-0.07-0.17-0.28-0.25-0.43-0.15c-0.2,0.39-0.27,0.85-0.19,1.29
		c0.11-0.18,0.22-0.35,0.33-0.53c-0.04-0.02-0.09-0.04-0.14-0.06C173.29,35.31,173.47,35.08,173.7,35.02 M152.87,52.78
		c0.09,0.06,0.19,0.12,0.28,0.18c0.03-0.11,0.03-0.23,0.02-0.34c-0.21,0.06-0.46-0.09-0.51-0.32c-0.09,0.11-0.12,0.26-0.08,0.4
		c0.09,0.03,0.16,0.11,0.19,0.21C152.8,52.85,152.84,52.82,152.87,52.78 M171.34,52.61c-0.03-0.08-0.06-0.15-0.11-0.2
		c-0.06-0.04-0.16-0.04-0.19,0.04c-0.02,0.04-0.01,0.09,0.01,0.13c0.04,0.17,0.09,0.34,0.13,0.5c0.09,0,0.12-0.12,0.15-0.22
		c0.02-0.09,0.14-0.18,0.19-0.1c-0.04-0.05-0.08-0.11-0.12-0.16 M169.76,53.12c0.07-0.17-0.13-0.31-0.26-0.45
		c-0.06-0.07-0.1-0.14-0.13-0.23c-0.13,0.04-0.13,0.27-0.04,0.38c0.09,0.12,0.23,0.18,0.31,0.31
		C169.68,53.13,169.72,53.12,169.76,53.12 M170.57,53.13c0.07,0.02,0.17-0.04,0.12-0.08c-0.01-0.18-0.1-0.35-0.24-0.45
		c-0.12,0.17-0.06,0.45,0.12,0.55"/>
	<path d="M175.49,47.98c-0.02-0.64,0.14-1.27,0.33-1.88c0.08-0.28,0.17-0.59,0.06-0.86c-0.08-0.18-0.25-0.37-0.16-0.55
		c0.48-0.89-0.35-2.09,0.08-3c0.04,0.11,0.09,0.21,0.14,0.32c0.32-0.27,0.65-0.78,0.34-1.07c-0.24-0.23-0.15-0.64-0.08-0.97
		c0.07-0.34,0.01-0.81-0.32-0.85c0.06-0.11,0.24-0.11,0.29,0c0.32-0.66,0.36-1.46,0.13-2.16c-0.15,0.28-0.19,0.63-0.11,0.95
		c-0.23-0.02-0.39-0.3-0.37-0.55c0.01-0.25,0.14-0.47,0.28-0.69c0.17,0.04,0.36-0.04,0.47-0.18c-0.24,0.01-0.33-0.34-0.3-0.59
		s0.03-0.59-0.2-0.68c-0.33-0.15-0.15-0.7,0.12-0.96c0.27-0.26,0.59-0.66,0.37-0.97c-0.23-0.33-0.28-0.78-0.14-1.16
		c1.09,0.98,2.2,2,2.87,3.34c0.2,0.4,0.58,0.7,1,0.78c0.11,0.02,0.23,0.04,0.3,0.13c0.07,0.09,0.01,0.27-0.1,0.24
		c-0.03-0.14-0.2-0.23-0.32-0.16c0.04,0.4,0.7,0.47,0.81,0.08c0.03,0.18,0.05,0.36,0.07,0.53c0.26-0.12,0.6,0.17,0.54,0.46
		c-0.03,0.17-0.15,0.37-0.05,0.5c0.06-0.12,0.12-0.25,0.18-0.37c0.14,0.15,0.19,0.4,0.13,0.6c0.59,0.06,1.17,0.3,1.64,0.68
		c0.61,0.49,1.21,0.97,1.82,1.46c-0.19-0.05-0.41,0.09-0.46,0.3c0.48,0.1,0.98,0.21,1.34,0.57c0.43,0.44,0.51,1.16,0.38,1.78
		c0.17-0.18,0.34-0.37,0.51-0.56c-0.2-0.02-0.36-0.25-0.32-0.47c0.29,0.05,0.59,0.12,0.83,0.31c0.24,0.19,0.39,0.55,0.26,0.83
		c0.41-0.08,0.64,0.48,0.71,0.92c0.04-0.11,0.08-0.23,0.11-0.34c0.11,0.84,0.7,1.57,1.45,1.82c0.48,0.15,0.59,0.82,0.6,1.35
		c0.17-0.03,0.33-0.13,0.44-0.27c-0.2,0.02-0.39-0.18-0.37-0.4c0.33,0.1,0.62,0.39,0.73,0.75c0.04-0.22,0.35-0.25,0.51-0.12
		c0.17,0.14,0.24,0.36,0.33,0.56c0.1,0.2,0.27,0.4,0.48,0.38c0.41-0.03,0.79,0.34,0.93,0.76c0.14,0.43,0.11,0.89,0.07,1.33
		c0.25-0.22,0.34-0.63,0.19-0.95c0.38,0.13,0.62,0.59,0.54,1.01c0.17-0.04,0.34-0.07,0.5-0.1c-0.15,0.05-0.07,0.3,0.05,0.42
		c0.31,0.33,0.65,0.62,1,0.89c0.24-0.07,0.48-0.12,0.72-0.14c-0.15,0.57-0.19,1.18-0.11,1.77c0.16,0.07,0.32,0.15,0.49,0.22
		c0.07,0.17-0.17,0.3-0.32,0.23c-0.15-0.07-0.25-0.24-0.4-0.33c-0.34-0.22-0.76,0.06-1.1,0.29c-0.34,0.23-0.86,0.38-1.08,0.02
		c0.36-0.02,0.71-0.12,1.04-0.28c-0.39-0.24-1.01-0.41-1.2,0.02c-0.2,0.44-0.79,0.43-1.24,0.34c0.03-0.06,0.06-0.12,0.09-0.18
		c-0.17-0.31-0.54-0.47-0.87-0.46c-0.34,0.01-0.66,0.16-0.97,0.32c-0.11,0.05-0.23,0.13-0.26,0.26c-0.15-0.09-0.36-0.08-0.5,0.05
		c-0.07-0.15-0.1-0.32-0.1-0.49c-0.24,0.15-0.57,0.12-0.79-0.06c-0.11,0.19-0.17,0.4-0.2,0.62c-0.42-0.05-0.82-0.26-1.11-0.59
		c0.08,0.19,0.09,0.41,0.02,0.6c-0.4-0.54-1.11-0.79-1.73-0.6c-0.04,0.11-0.08,0.21-0.12,0.31c-0.54,0.01-1.07-0.11-1.56-0.34
		c-0.21-0.09-0.44,0.05-0.65,0.13c-0.22,0.07-0.54-0.01-0.53-0.24c0.04,0.2-0.17,0.37-0.36,0.36c-0.19-0.01-0.35-0.13-0.5-0.25
		c-0.22-0.17-0.43-0.33-0.64-0.5c-0.14,0.15-0.07,0.44,0.11,0.57c0.17,0.12,0.39,0.13,0.6,0.13c-0.4,0.37-1.13,0.17-1.31-0.37
		c-0.14,0.53-0.76,0.84-1.23,0.6c-0.24-0.44-0.7-0.73-1.18-0.74c-0.06,0.17,0.16,0.3,0.33,0.32c0.17,0.01,0.39,0.04,0.44,0.22
		c-0.25,0.42-0.84,0.17-1.29,0.03c-0.47-0.14-1-0.08-1.43,0.17c-0.23-0.35-0.66-0.53-1.04-0.45c-0.07,0.28-0.26,0.53-0.51,0.65
		c0.18-0.41,0.06-0.94-0.27-1.22c0.11,0.09,0.28,0,0.34-0.13c0.06-0.13,0.04-0.28,0.02-0.43c-0.06-0.39-0.11-0.78-0.16-1.17
		c0.12-0.09,0.27-0.13,0.41-0.12C175.83,49.54,175.52,48.78,175.49,47.98 M187.24,43.37c0.24-0.13,0.46-0.44,0.33-0.69
		c-0.05-0.09-0.14-0.15-0.23-0.21C187.31,42.77,187.28,43.07,187.24,43.37 M177.23,52.75c0.13,0.02,0.25,0.05,0.38,0.08
		c-0.03-0.2-0.24-0.33-0.41-0.26c-0.02,0.06,0.01,0.12,0.04,0.17"/>
</g>
<rect x="24.35" y="5.3" class="st2" width="128.84" height="49.89"/>
<text transform="matrix(1 0 0 1 24.3521 25.2188)"><tspan x="0" y="0" class="st3 st4 st5">Danny </tspan><tspan x="0" y="28.8" class="st3 st4 st5">Davies</tspan></text>
<rect x="204" width="22" height="64"/>
</svg>
